<mxfile host="app.diagrams.net" modified="2023-01-10T03:06:40.257Z" agent="5.0 (X11; Linux x86_64) AppleWebKit/537.36 (KHTML, like Gecko) Chrome/104.0.0.0 Safari/537.36" etag="lbfB4Kw73hEX2gW1wGhn" version="20.8.3" type="github">
  <diagram id="jLtpcuwFkMci9rDW-9Tf" name="Seite-1">
    <mxGraphModel dx="1362" dy="746" grid="1" gridSize="10" guides="1" tooltips="1" connect="1" arrows="1" fold="1" page="1" pageScale="1" pageWidth="827" pageHeight="1169" math="0" shadow="0">
      <root>
        <mxCell id="0" />
        <mxCell id="1" parent="0" />
        <mxCell id="6MtVzQFUh-aNouSLwNQq-1" value="User/Admin" style="shape=umlActor;verticalLabelPosition=bottom;verticalAlign=top;html=1;outlineConnect=0;" parent="1" vertex="1">
          <mxGeometry x="30" y="260" width="30" height="60" as="geometry" />
        </mxCell>
        <mxCell id="6MtVzQFUh-aNouSLwNQq-2" value="Browser" style="ellipse;shape=cloud;whiteSpace=wrap;html=1;" parent="1" vertex="1">
          <mxGeometry x="130" y="250" width="120" height="80" as="geometry" />
        </mxCell>
        <mxCell id="6MtVzQFUh-aNouSLwNQq-5" value="" style="endArrow=classic;html=1;rounded=0;entryX=0.083;entryY=0.625;entryDx=0;entryDy=0;entryPerimeter=0;" parent="1" target="6MtVzQFUh-aNouSLwNQq-2" edge="1">
          <mxGeometry width="50" height="50" relative="1" as="geometry">
            <mxPoint x="70" y="300" as="sourcePoint" />
            <mxPoint x="130" y="260" as="targetPoint" />
          </mxGeometry>
        </mxCell>
        <mxCell id="6MtVzQFUh-aNouSLwNQq-6" value="" style="endArrow=classic;html=1;rounded=0;" parent="1" edge="1">
          <mxGeometry width="50" height="50" relative="1" as="geometry">
            <mxPoint x="250" y="300" as="sourcePoint" />
            <mxPoint x="290" y="300" as="targetPoint" />
          </mxGeometry>
        </mxCell>
        <mxCell id="6MtVzQFUh-aNouSLwNQq-7" value="Action" style="text;html=1;align=center;verticalAlign=middle;resizable=0;points=[];autosize=1;strokeColor=none;fillColor=none;" parent="1" vertex="1">
          <mxGeometry x="240" y="265" width="60" height="30" as="geometry" />
        </mxCell>
        <mxCell id="6MtVzQFUh-aNouSLwNQq-8" value="Camunda" style="rounded=0;whiteSpace=wrap;html=1;" parent="1" vertex="1">
          <mxGeometry x="310" y="265" width="120" height="60" as="geometry" />
        </mxCell>
        <mxCell id="6MtVzQFUh-aNouSLwNQq-9" value="" style="endArrow=classic;html=1;rounded=0;" parent="1" edge="1">
          <mxGeometry width="50" height="50" relative="1" as="geometry">
            <mxPoint x="440" y="300" as="sourcePoint" />
            <mxPoint x="500" y="300" as="targetPoint" />
          </mxGeometry>
        </mxCell>
        <mxCell id="6MtVzQFUh-aNouSLwNQq-10" value="Cockpit/Tasklists" style="rounded=0;whiteSpace=wrap;html=1;" parent="1" vertex="1">
          <mxGeometry x="510" y="265" width="120" height="60" as="geometry" />
        </mxCell>
        <mxCell id="6MtVzQFUh-aNouSLwNQq-11" value="" style="endArrow=classic;html=1;rounded=0;" parent="1" edge="1">
          <mxGeometry width="50" height="50" relative="1" as="geometry">
            <mxPoint x="414" y="260" as="sourcePoint" />
            <mxPoint x="454" y="230" as="targetPoint" />
            <Array as="points">
              <mxPoint x="444" y="230" />
            </Array>
          </mxGeometry>
        </mxCell>
        <mxCell id="6MtVzQFUh-aNouSLwNQq-12" value="Modeler" style="rounded=0;whiteSpace=wrap;html=1;" parent="1" vertex="1">
          <mxGeometry x="460" y="190" width="120" height="60" as="geometry" />
        </mxCell>
        <mxCell id="6MtVzQFUh-aNouSLwNQq-13" value="" style="endArrow=classic;html=1;rounded=0;" parent="1" edge="1">
          <mxGeometry width="50" height="50" relative="1" as="geometry">
            <mxPoint x="360" y="340" as="sourcePoint" />
            <mxPoint x="360" y="380" as="targetPoint" />
          </mxGeometry>
        </mxCell>
        <mxCell id="6MtVzQFUh-aNouSLwNQq-14" value="Topic Listener" style="rounded=0;whiteSpace=wrap;html=1;" parent="1" vertex="1">
          <mxGeometry x="310" y="390" width="110" height="50" as="geometry" />
        </mxCell>
        <mxCell id="6MtVzQFUh-aNouSLwNQq-16" value="" style="endArrow=classic;startArrow=classic;html=1;rounded=0;" parent="1" edge="1">
          <mxGeometry width="50" height="50" relative="1" as="geometry">
            <mxPoint x="190" y="400" as="sourcePoint" />
            <mxPoint x="300" y="420" as="targetPoint" />
            <Array as="points">
              <mxPoint x="210" y="340" />
            </Array>
          </mxGeometry>
        </mxCell>
        <mxCell id="6MtVzQFUh-aNouSLwNQq-17" value="Microservices" style="rounded=0;whiteSpace=wrap;html=1;" parent="1" vertex="1">
          <mxGeometry x="130" y="410" width="120" height="60" as="geometry" />
        </mxCell>
        <mxCell id="6MtVzQFUh-aNouSLwNQq-18" value="LieÃŸt Data von API&lt;br&gt;" style="text;html=1;align=center;verticalAlign=middle;resizable=0;points=[];autosize=1;strokeColor=none;fillColor=none;" parent="1" vertex="1">
          <mxGeometry x="80" y="370" width="120" height="30" as="geometry" />
        </mxCell>
      </root>
    </mxGraphModel>
  </diagram>
</mxfile>
